<svg xmlns="http://www.w3.org/2000/svg" viewBox="0 0 390 500" fill="#c5da91">
<defs><g id="leaf"><path d="M0 15C-4 1 10-6 20 0c3 13-9 22-20 15Z"/><path d="m-3 19 19-16" stroke="#faf9f1" stroke-width="2"/></g><g id="clover"><ellipse cx="-5" cy="-6" rx="5" ry="7" transform="rotate(-30)"/><ellipse cx="5" cy="-6" rx="5" ry="7" transform="rotate(30)"/><ellipse cx="-5" cy="5" rx="5" ry="7" transform="rotate(30)"/><ellipse cx="5" cy="5" rx="5" ry="7" transform="rotate(-30)"/><path d="M0 0q2 10 8 15" stroke="#c5da91" stroke-width="2" fill="none"/></g></defs>
<g opacity=".72"><use href="#clover" transform="translate(35 95) rotate(15)"/><use href="#leaf" transform="translate(333 210) rotate(-15)"/><use href="#leaf" transform="translate(35 320) rotate(65)"/><use href="#clover" transform="translate(343 415) rotate(-20)"/><use href="#clover" transform="translate(48 443) rotate(20) scale(.85)"/></g>
<ellipse cx="195" cy="482" rx="84" ry="10" opacity=".2"/>
</svg>
